<svg width="155" height="43" viewBox="0 0 155 43" fill="none" xmlns="http://www.w3.org/2000/svg">
<path fill-rule="evenodd" clip-rule="evenodd" d="M18.9886 7.12275C19.3097 7.21544 19.6493 7.26509 20.0005 7.26509C20.3529 7.26509 20.6935 7.21512 21.0155 7.12187L31.9852 26.1213C31.7397 26.3554 31.5233 26.6281 31.3457 26.937C31.1692 27.2441 31.0424 27.5665 30.9628 27.8946H9.03848C8.9589 27.5667 8.83202 27.2444 8.65535 26.937C8.47707 26.6301 8.26116 26.3589 8.01688 26.1258L18.9886 7.12275ZM17.3874 6.15781C17.4213 6.19288 17.4559 6.22726 17.4911 6.26094L6.519 25.2647C6.47156 25.2509 6.42385 25.2381 6.3759 25.2263V15.5315C7.30046 15.3017 8.13355 14.712 8.64494 13.8224C9.15567 12.9339 9.25035 11.9204 8.98874 11.0069L17.3874 6.15781ZM23.483 4.67096C23.5807 4.34205 23.6331 3.99351 23.6331 3.63254C23.6331 1.62372 22.0094 0 20.0005 0C17.9917 0 16.368 1.62372 16.368 3.63254C16.368 3.99154 16.4199 4.33824 16.5165 4.66558L8.13317 9.50583C7.89803 9.25753 7.62367 9.03823 7.31266 8.85758C5.57445 7.85837 3.34704 8.45165 2.34783 10.1899C1.34862 11.9281 1.9419 14.1555 3.68011 15.1547C3.99044 15.3331 4.31636 15.4607 4.6481 15.5401V25.2216C4.32015 25.3012 3.99785 25.4281 3.69052 25.6048C1.95231 26.6144 1.35903 28.8314 2.35824 30.5696C3.35745 32.3078 5.57445 32.9011 7.32307 31.9019C7.6308 31.7231 7.90264 31.5065 8.13612 31.2615L16.515 36.0991C16.4193 36.4249 16.368 36.7698 16.368 37.1269C16.368 39.1357 17.9917 40.7594 20.0005 40.7594C22.0094 40.7594 23.6331 39.1253 23.6331 37.1269C23.6331 36.7267 23.5687 36.3418 23.4496 35.982L31.7795 31.1726C32.0313 31.4553 32.332 31.7029 32.678 31.9019C34.4162 32.9011 36.6436 32.3078 37.6428 30.5696C38.6525 28.8314 38.0592 26.6144 36.3106 25.6048C36.0035 25.4282 35.6811 25.3014 35.353 25.2218V15.5401C35.6847 15.4607 36.0106 15.3331 36.321 15.1547C38.0592 14.1451 38.6525 11.9281 37.6533 10.1899C36.6436 8.45165 34.4266 7.85837 32.6884 8.85758C32.3757 9.03922 32.1001 9.25993 31.8641 9.50991L23.483 4.67096ZM22.5122 6.25874C22.5454 6.22706 22.5779 6.19476 22.6098 6.16186L31.0108 11.0123C30.7511 11.9244 30.8464 12.9357 31.3561 13.8224C31.8675 14.712 32.7006 15.3017 33.6252 15.5315V25.2253C33.5781 25.2369 33.5312 25.2494 33.4846 25.2628L22.5122 6.25874ZM31.0334 29.8607L22.6869 34.6797C22.023 33.951 21.0659 33.4944 20.0005 33.4944C18.9718 33.4944 18.044 33.9202 17.3836 34.6056L8.99614 29.763C9.00963 29.7164 9.0222 29.6695 9.03383 29.6224H30.9663C30.986 29.7026 31.0084 29.782 31.0334 29.8607Z" fill="#D4319E"/>
<g clip-path="url(#clip0_12_558)">
<path fill-rule="evenodd" clip-rule="evenodd" d="M19.805 7.93908C20.1261 8.03175 20.4656 8.0814 20.8169 8.0814C21.1693 8.0814 21.5098 8.03144 21.8318 7.93819L32.8015 26.9377C32.556 27.1718 32.3397 27.4445 32.1621 27.7534C31.9856 28.0605 31.8588 28.3828 31.7792 28.711H9.85479C9.77522 28.383 9.64833 28.0607 9.47166 27.7534C9.29339 27.4465 9.07749 27.1753 8.83322 26.9422L19.805 7.93908ZM18.2038 6.97416C18.2376 7.00923 18.2722 7.04361 18.3075 7.07729L7.33535 26.0811C7.2879 26.0673 7.24018 26.0545 7.19222 26.0426V16.3479C8.11679 16.1181 8.94989 15.5283 9.46128 14.6387C9.97201 13.7503 10.0667 12.7367 9.80509 11.8233L18.2038 6.97416ZM24.2993 5.48733C24.397 5.1584 24.4494 4.80985 24.4494 4.44886C24.4494 2.44003 22.8257 0.816315 20.8169 0.816315C18.808 0.816315 17.1843 2.44003 17.1843 4.44886C17.1843 4.80788 17.2362 5.15459 17.3328 5.48194L8.94954 10.3222C8.71439 10.0739 8.44003 9.85457 8.129 9.67391C6.39079 8.6747 4.16339 9.26798 3.16418 11.0062C2.16497 12.7444 2.75825 14.9718 4.49646 15.971C4.80678 16.1494 5.13269 16.277 5.46442 16.3565V26.038C5.13647 26.1175 4.81417 26.2444 4.50683 26.4211C2.76863 27.4307 2.17534 29.6477 3.17455 31.3859C4.17376 33.1241 6.39076 33.7174 8.13938 32.7182C8.44712 32.5395 8.71897 32.3229 8.95245 32.0778L17.3313 36.9155C17.2356 37.2412 17.1843 37.5862 17.1843 37.9432C17.1843 39.9521 18.808 41.5758 20.8169 41.5758C22.8257 41.5758 24.4494 39.9417 24.4494 37.9432C24.4494 37.5431 24.385 37.1582 24.2659 36.7984L32.5959 31.9889C32.8476 32.2717 33.1483 32.5193 33.4944 32.7182C35.2326 33.7174 37.46 33.1241 38.4592 31.3859C39.4688 29.6477 38.8755 27.4307 37.1269 26.4211C36.8198 26.2446 36.4975 26.1178 36.1693 26.0382V16.3565C36.5011 16.277 36.827 16.1494 37.1373 15.971C38.8755 14.9614 39.4688 12.7444 38.4696 11.0062C37.46 9.26798 35.243 8.6747 33.5048 9.67391C33.192 9.85556 32.9164 10.0763 32.6804 10.3263L24.2993 5.48733ZM23.3285 7.07509C23.3617 7.04341 23.3942 7.01111 23.4261 6.97821L31.8271 11.8287C31.5674 12.7408 31.6628 13.752 32.1725 14.6387C32.6839 15.5283 33.517 16.1181 34.4415 16.3479V26.0417C34.3944 26.0533 34.3475 26.0658 34.3009 26.0792L23.3285 7.07509ZM31.8498 30.677L23.5033 35.496C22.8393 34.7674 21.8822 34.3107 20.8169 34.3107C19.7881 34.3107 18.8603 34.7366 18.1999 35.4219L9.81246 30.5793C9.82595 30.5327 9.83851 30.4858 9.85014 30.4388H31.7827C31.8024 30.5189 31.8247 30.5984 31.8498 30.677Z" fill="white"/>
</g>
<path d="M47.7703 18.3389V4.08987H53.3919C54.4727 4.08987 55.3934 4.29628 56.1541 4.70909C56.9148 5.11727 57.4945 5.68546 57.8934 6.41368C58.297 7.13726 58.4987 7.97217 58.4987 8.91839C58.4987 9.86461 58.2947 10.6995 57.8865 11.4231C57.4783 12.1467 56.8869 12.7102 56.1123 13.1138C55.3424 13.5173 54.41 13.7191 53.3154 13.7191H49.7323V11.3048H52.8284C53.4082 11.3048 53.8859 11.2051 54.2616 11.0056C54.642 10.8016 54.9249 10.5209 55.1104 10.1638C55.3006 9.80199 55.3957 9.38686 55.3957 8.91839C55.3957 8.44528 55.3006 8.03246 55.1104 7.67995C54.9249 7.3228 54.642 7.04682 54.2616 6.85201C53.8813 6.65256 53.3989 6.55283 52.8145 6.55283H50.7829V18.3389H47.7703Z" fill="white"/>
<path d="M63.3638 4.08987V18.3389H60.3999V4.08987H63.3638Z" fill="white"/>
<path d="M68.7854 18.5406C68.1036 18.5406 67.496 18.4223 66.9626 18.1858C66.4291 17.9446 66.0071 17.5898 65.6963 17.1213C65.3902 16.6482 65.2371 16.0591 65.2371 15.3541C65.2371 14.7604 65.3461 14.2618 65.5641 13.8582C65.7821 13.4547 66.079 13.13 66.4547 12.8842C66.8304 12.6383 67.2571 12.4528 67.7348 12.3276C68.2172 12.2023 68.7228 12.1142 69.2516 12.0632C69.8731 11.9982 70.3741 11.9379 70.7544 11.8823C71.1347 11.822 71.4107 11.7339 71.5823 11.6179C71.754 11.5019 71.8398 11.3303 71.8398 11.103V11.0613C71.8398 10.6207 71.7006 10.2797 71.4223 10.0385C71.1487 9.79735 70.759 9.67676 70.2535 9.67676C69.7201 9.67676 69.2956 9.79503 68.9802 10.0316C68.6648 10.2635 68.4561 10.5557 68.3541 10.9082L65.6128 10.6856C65.7519 10.0362 66.0256 9.47499 66.4338 9.00188C66.842 8.52413 67.3684 8.1577 68.0131 7.90259C68.6625 7.64284 69.4139 7.51297 70.2674 7.51297C70.8611 7.51297 71.4293 7.58255 71.972 7.7217C72.5193 7.86085 73.004 8.07653 73.4261 8.36874C73.8528 8.66096 74.1891 9.03667 74.4349 9.49586C74.6808 9.95042 74.8037 10.4954 74.8037 11.1309V18.3389H71.9928V16.8569H71.9093C71.7377 17.1909 71.5081 17.4854 71.2206 17.7405C70.933 17.991 70.5874 18.1881 70.1839 18.3319C69.7803 18.4711 69.3142 18.5406 68.7854 18.5406ZM69.6342 16.4951C70.0702 16.4951 70.4552 16.4093 70.7892 16.2377C71.1231 16.0614 71.3852 15.8249 71.5754 15.528C71.7656 15.2312 71.8606 14.8949 71.8606 14.5192V13.3851C71.7679 13.4454 71.6403 13.5011 71.478 13.5521C71.3203 13.5985 71.1417 13.6425 70.9423 13.6843C70.7428 13.7214 70.5434 13.7562 70.3439 13.7886C70.1445 13.8165 69.9636 13.842 69.8012 13.8652C69.4533 13.9162 69.1495 13.9974 68.8898 14.1087C68.63 14.22 68.4283 14.3708 68.2845 14.5609C68.1407 14.7465 68.0688 14.9784 68.0688 15.2567C68.0688 15.6602 68.2149 15.9687 68.5071 16.182C68.804 16.3908 69.1797 16.4951 69.6342 16.4951Z" fill="white"/>
<path d="M78.5503 22.3464C78.1746 22.3464 77.8221 22.3162 77.4928 22.2559C77.1681 22.2003 76.899 22.1284 76.6857 22.0403L77.3536 19.8278C77.7015 19.9344 78.0146 19.9924 78.2929 20.0017C78.5758 20.011 78.8193 19.946 79.0234 19.8069C79.2321 19.6677 79.4014 19.4312 79.5313 19.0972L79.7052 18.645L75.8717 7.65212H78.9886L81.2011 15.5002H81.3124L83.5458 7.65212H86.6836L82.53 19.4938C82.3305 20.069 82.0592 20.5699 81.716 20.9966C81.3774 21.428 80.9483 21.7596 80.4288 21.9916C79.9093 22.2281 79.2832 22.3464 78.5503 22.3464Z" fill="white"/>
<path d="M92.6706 22.569C91.7104 22.569 90.8871 22.4368 90.2006 22.1724C89.5188 21.9127 88.9761 21.5579 88.5726 21.1079C88.1691 20.658 87.907 20.1524 87.7864 19.5912L90.5276 19.2225C90.6111 19.4358 90.7433 19.6353 90.9242 19.8208C91.1051 20.0063 91.344 20.1548 91.6409 20.2661C91.9423 20.382 92.3088 20.44 92.7401 20.44C93.3849 20.44 93.916 20.2823 94.3334 19.9669C94.7555 19.6561 94.9665 19.1343 94.9665 18.4015V16.4464H94.8413C94.7114 16.7433 94.5166 17.0239 94.2569 17.2883C93.9971 17.5527 93.6632 17.7683 93.255 17.9353C92.8468 18.1023 92.3598 18.1858 91.7939 18.1858C90.9915 18.1858 90.2609 18.0003 89.6023 17.6292C88.9483 17.2535 88.4265 16.6807 88.0369 15.9107C87.6519 15.1361 87.4594 14.1574 87.4594 12.9746C87.4594 11.764 87.6565 10.7529 88.0508 9.94114C88.445 9.12943 88.9692 8.52181 89.6232 8.11827C90.2818 7.71474 91.0031 7.51297 91.787 7.51297C92.3853 7.51297 92.8862 7.61501 93.2898 7.8191C93.6933 8.01855 94.018 8.26902 94.2638 8.57051C94.5143 8.86737 94.7068 9.15958 94.8413 9.44716H94.9526V7.65212H97.8957V18.4432C97.8957 19.3523 97.673 20.113 97.2277 20.7253C96.7825 21.3375 96.1656 21.7967 95.377 22.1029C94.5932 22.4136 93.691 22.569 92.6706 22.569ZM92.7332 15.9594C93.2109 15.9594 93.6145 15.8411 93.9438 15.6046C94.2777 15.3634 94.5329 15.0201 94.7091 14.5748C94.89 14.1249 94.9805 13.5869 94.9805 12.9607C94.9805 12.3345 94.8923 11.7918 94.7161 11.3326C94.5398 10.8688 94.2847 10.5093 93.9507 10.2542C93.6168 9.99912 93.2109 9.87157 92.7332 9.87157C92.2462 9.87157 91.8357 10.0038 91.5017 10.2681C91.1677 10.5279 90.9149 10.8897 90.7433 11.3535C90.5717 11.8174 90.4859 12.3531 90.4859 12.9607C90.4859 13.5776 90.5717 14.111 90.7433 14.5609C90.9196 15.0062 91.1724 15.3518 91.5017 15.5976C91.8357 15.8388 92.2462 15.9594 92.7332 15.9594Z" fill="white"/>
<path d="M100.254 18.3389V7.65212H103.128V9.51673H103.239C103.434 8.85345 103.761 8.35251 104.22 8.01391C104.679 7.67067 105.208 7.49905 105.806 7.49905C105.955 7.49905 106.115 7.50833 106.286 7.52688C106.458 7.54544 106.609 7.57095 106.739 7.60342V10.2334C106.599 10.1916 106.407 10.1545 106.161 10.122C105.915 10.0896 105.69 10.0733 105.486 10.0733C105.05 10.0733 104.661 10.1684 104.317 10.3586C103.979 10.5441 103.71 10.8039 103.51 11.1378C103.316 11.4718 103.218 11.8568 103.218 12.2928V18.3389H100.254Z" fill="white"/>
<path d="M112.602 18.5476C111.521 18.5476 110.587 18.318 109.798 17.8588C109.014 17.395 108.409 16.7502 107.982 15.9246C107.556 15.0943 107.342 14.1319 107.342 13.0372C107.342 11.9333 107.556 10.9685 107.982 10.1429C108.409 9.31265 109.014 8.66792 109.798 8.20872C110.587 7.74489 111.521 7.51297 112.602 7.51297C113.683 7.51297 114.615 7.74489 115.399 8.20872C116.188 8.66792 116.795 9.31265 117.222 10.1429C117.649 10.9685 117.862 11.9333 117.862 13.0372C117.862 14.1319 117.649 15.0943 117.222 15.9246C116.795 16.7502 116.188 17.395 115.399 17.8588C114.615 18.318 113.683 18.5476 112.602 18.5476ZM112.616 16.2516C113.108 16.2516 113.518 16.1125 113.847 15.8342C114.177 15.5512 114.425 15.1662 114.592 14.6792C114.764 14.1922 114.849 13.6379 114.849 13.0164C114.849 12.3948 114.764 11.8405 114.592 11.3535C114.425 10.8665 114.177 10.4815 113.847 10.1986C113.518 9.91563 113.108 9.77416 112.616 9.77416C112.12 9.77416 111.702 9.91563 111.364 10.1986C111.03 10.4815 110.777 10.8665 110.605 11.3535C110.438 11.8405 110.355 12.3948 110.355 13.0164C110.355 13.6379 110.438 14.1922 110.605 14.6792C110.777 15.1662 111.03 15.5512 111.364 15.8342C111.702 16.1125 112.12 16.2516 112.616 16.2516Z" fill="white"/>
<path d="M126.642 13.7886V7.65212H129.606V18.3389H126.761V16.3977H126.649C126.408 17.0239 126.007 17.5271 125.446 17.9075C124.889 18.2878 124.21 18.478 123.407 18.478C122.693 18.478 122.064 18.3157 121.522 17.991C120.979 17.6663 120.555 17.2048 120.248 16.6064C119.947 16.0081 119.794 15.2915 119.789 14.4566V7.65212H122.753V13.9278C122.758 14.5586 122.927 15.0572 123.261 15.4237C123.595 15.7901 124.043 15.9733 124.604 15.9733C124.961 15.9733 125.295 15.8921 125.606 15.7298C125.916 15.5628 126.167 15.317 126.357 14.9923C126.552 14.6676 126.647 14.2664 126.642 13.7886Z" fill="white"/>
<path d="M134.941 12.1606V18.3389H131.977V7.65212H134.802V9.53761H134.927C135.164 8.91607 135.56 8.4244 136.117 8.06261C136.673 7.69618 137.348 7.51297 138.141 7.51297C138.884 7.51297 139.531 7.67531 140.083 8C140.634 8.32468 141.064 8.78851 141.37 9.3915C141.676 9.98984 141.829 10.7041 141.829 11.5344V18.3389H138.865V12.0632C138.87 11.4092 138.703 10.899 138.364 10.5325C138.025 10.1615 137.559 9.97593 136.966 9.97593C136.567 9.97593 136.214 10.0617 135.908 10.2334C135.607 10.405 135.37 10.6554 135.198 10.9848C135.031 11.3095 134.946 11.7014 134.941 12.1606Z" fill="white"/>
<path d="M148.103 18.5128C147.291 18.5128 146.556 18.3041 145.897 17.8866C145.243 17.4645 144.724 16.8453 144.339 16.029C143.958 15.208 143.768 14.2015 143.768 13.0094C143.768 11.7849 143.965 10.7668 144.36 9.95506C144.754 9.13871 145.278 8.52877 145.932 8.12523C146.591 7.71706 147.312 7.51297 148.096 7.51297C148.694 7.51297 149.193 7.61501 149.592 7.8191C149.995 8.01855 150.32 8.26902 150.566 8.57051C150.816 8.86737 151.006 9.15958 151.136 9.44716H151.227V4.08987H154.184V18.3389H151.261V16.6273H151.136C150.997 16.9242 150.8 17.2187 150.545 17.5109C150.294 17.7985 149.967 18.0374 149.564 18.2275C149.165 18.4177 148.678 18.5128 148.103 18.5128ZM149.042 16.1542C149.52 16.1542 149.923 16.0243 150.253 15.7646C150.587 15.5002 150.842 15.1314 151.018 14.6583C151.199 14.1852 151.289 13.6309 151.289 12.9955C151.289 12.36 151.201 11.8081 151.025 11.3396C150.849 10.8711 150.594 10.5093 150.26 10.2542C149.926 9.99912 149.52 9.87157 149.042 9.87157C148.555 9.87157 148.145 10.0038 147.811 10.2681C147.477 10.5325 147.224 10.899 147.052 11.3674C146.881 11.8359 146.795 12.3786 146.795 12.9955C146.795 13.617 146.881 14.1667 147.052 14.6444C147.228 15.1175 147.481 15.4886 147.811 15.7576C148.145 16.022 148.555 16.1542 149.042 16.1542Z" fill="white"/>
<path d="M53.6563 31.5024C53.5914 31.2767 53.5002 31.0772 53.3827 30.9041C53.2652 30.7278 53.1214 30.5794 52.9513 30.4588C52.7843 30.3351 52.5926 30.2408 52.3762 30.1759C52.1628 30.1109 51.9262 30.0785 51.6665 30.0785C51.181 30.0785 50.7543 30.1991 50.3863 30.4402C50.0214 30.6814 49.7369 31.0324 49.5329 31.4932C49.3288 31.9508 49.2267 32.5105 49.2267 33.1722C49.2267 33.834 49.3272 34.3968 49.5282 34.8606C49.7292 35.3244 50.0137 35.6785 50.3817 35.9228C50.7496 36.164 51.1841 36.2846 51.685 36.2846C52.1396 36.2846 52.5277 36.2042 52.8493 36.0434C53.174 35.8795 53.4213 35.6491 53.5914 35.3523C53.7646 35.0554 53.8511 34.7044 53.8511 34.2993L54.2593 34.3596H51.8103V32.8475H55.7853V34.0442C55.7853 34.8791 55.6091 35.5965 55.2566 36.1964C54.9041 36.7932 54.4186 37.254 53.8001 37.5787C53.1817 37.9002 52.4736 38.061 51.6758 38.061C50.7852 38.061 50.0029 37.8647 49.3288 37.472C48.6547 37.0762 48.129 36.5149 47.7517 35.7883C47.3776 35.0585 47.1905 34.1927 47.1905 33.1908C47.1905 32.4208 47.3018 31.7343 47.5245 31.1314C47.7502 30.5253 48.0656 30.012 48.4707 29.5914C48.8758 29.1709 49.3473 28.8508 49.8854 28.6313C50.4234 28.4117 51.0063 28.302 51.634 28.302C52.1721 28.302 52.673 28.3808 53.1368 28.5385C53.6007 28.6931 54.0119 28.9127 54.3706 29.1972C54.7324 29.4817 55.0277 29.8203 55.2566 30.213C55.4854 30.6026 55.6323 31.0324 55.6972 31.5024H53.6563Z" fill="white"/>
<path d="M57.2569 37.9312V30.8067H59.1725V32.0498H59.2467C59.3766 31.6076 59.5946 31.2736 59.9007 31.0479C60.2068 30.819 60.5593 30.7046 60.9582 30.7046C61.0572 30.7046 61.1639 30.7108 61.2783 30.7232C61.3927 30.7356 61.4932 30.7526 61.5798 30.7742V32.5275C61.487 32.4997 61.3587 32.4749 61.1948 32.4533C61.0309 32.4316 60.8809 32.4208 60.7449 32.4208C60.4542 32.4208 60.1945 32.4842 59.9656 32.611C59.7399 32.7347 59.5606 32.9078 59.4276 33.1305C59.2977 33.3531 59.2328 33.6098 59.2328 33.9005V37.9312H57.2569Z" fill="white"/>
<path d="M64.4289 38.0657C63.9743 38.0657 63.5692 37.9868 63.2136 37.8291C62.858 37.6683 62.5766 37.4318 62.3695 37.1195C62.1654 36.8041 62.0633 36.4113 62.0633 35.9413C62.0633 35.5455 62.136 35.2131 62.2813 34.9441C62.4267 34.6751 62.6246 34.4586 62.875 34.2947C63.1255 34.1308 63.41 34.0071 63.7285 33.9236C64.0501 33.8402 64.3871 33.7814 64.7397 33.7474C65.154 33.7041 65.488 33.6639 65.7415 33.6268C65.9951 33.5866 66.1791 33.5278 66.2935 33.4505C66.4079 33.3732 66.4651 33.2588 66.4651 33.1073V33.0795C66.4651 32.7857 66.3724 32.5584 66.1868 32.3976C66.0044 32.2368 65.7446 32.1564 65.4076 32.1564C65.052 32.1564 64.769 32.2353 64.5588 32.393C64.3485 32.5476 64.2093 32.7424 64.1413 32.9774L62.3138 32.829C62.4066 32.3961 62.589 32.0219 62.8611 31.7065C63.1332 31.388 63.4842 31.1437 63.914 30.9737C64.3469 30.8005 64.8479 30.7139 65.4169 30.7139C65.8127 30.7139 66.1915 30.7603 66.5532 30.8531C66.9181 30.9458 67.2413 31.0896 67.5227 31.2844C67.8071 31.4792 68.0313 31.7297 68.1952 32.0358C68.3591 32.3389 68.441 32.7022 68.441 33.1258V37.9312H66.5672V36.9432H66.5115C66.3971 37.1658 66.244 37.3622 66.0523 37.5323C65.8606 37.6993 65.6302 37.8307 65.3612 37.9265C65.0922 38.0193 64.7814 38.0657 64.4289 38.0657ZM64.9948 36.702C65.2854 36.702 65.5421 36.6448 65.7647 36.5304C65.9874 36.4129 66.1621 36.2552 66.2889 36.0573C66.4156 35.8594 66.479 35.6352 66.479 35.3847V34.6287C66.4172 34.6689 66.3322 34.706 66.2239 34.74C66.1188 34.7709 65.9997 34.8003 65.8668 34.8281C65.7338 34.8529 65.6008 34.876 65.4679 34.8977C65.3349 34.9162 65.2143 34.9333 65.1061 34.9487C64.8742 34.9827 64.6716 35.0368 64.4985 35.1111C64.3253 35.1853 64.1908 35.2858 64.0949 35.4125C63.9991 35.5362 63.9511 35.6908 63.9511 35.8764C63.9511 36.1454 64.0485 36.351 64.2434 36.4933C64.4413 36.6324 64.6917 36.702 64.9948 36.702Z" fill="white"/>
<path d="M69.974 40.6029V30.8067H71.9221V32.0034H72.0103C72.0968 31.8117 72.2221 31.6168 72.386 31.4189C72.5529 31.2179 72.7694 31.051 73.0353 30.918C73.3043 30.7819 73.6383 30.7139 74.0372 30.7139C74.5567 30.7139 75.036 30.85 75.4751 31.1221C75.9142 31.3911 76.2652 31.7977 76.528 32.342C76.7908 32.8831 76.9223 33.5619 76.9223 34.3782C76.9223 35.1729 76.7939 35.8439 76.5373 36.3912C76.2837 36.9355 75.9374 37.3483 75.4983 37.6297C75.0623 37.908 74.5737 38.0471 74.0326 38.0471C73.6491 38.0471 73.3229 37.9837 73.0539 37.857C72.7879 37.7302 72.5699 37.5709 72.3999 37.3792C72.2298 37.1844 72.0999 36.988 72.0103 36.7901H71.95V40.6029H69.974ZM71.9082 34.3689C71.9082 34.7926 71.967 35.1621 72.0845 35.4775C72.202 35.7929 72.372 36.0387 72.5947 36.215C72.8173 36.3881 73.0879 36.4747 73.4064 36.4747C73.728 36.4747 74.0001 36.3866 74.2227 36.2103C74.4454 36.031 74.6139 35.7836 74.7283 35.4682C74.8458 35.1497 74.9046 34.7833 74.9046 34.3689C74.9046 33.9577 74.8474 33.5959 74.733 33.2836C74.6185 32.9712 74.45 32.7269 74.2274 32.5507C74.0047 32.3744 73.7311 32.2863 73.4064 32.2863C73.0848 32.2863 72.8127 32.3713 72.59 32.5414C72.3705 32.7115 72.202 32.9527 72.0845 33.265C71.967 33.5773 71.9082 33.9453 71.9082 34.3689Z" fill="white"/>
<path d="M80.2155 33.8123V37.9312H78.2395V28.4318H80.1598V32.0637H80.2433C80.4041 31.6431 80.6638 31.3138 81.0225 31.0757C81.3812 30.8345 81.8312 30.7139 82.3723 30.7139C82.8671 30.7139 83.2984 30.8221 83.6664 31.0386C84.0375 31.252 84.3251 31.5596 84.5291 31.9616C84.7363 32.3605 84.8384 32.8383 84.8353 33.3949V37.9312H82.8593V33.7474C82.8624 33.3083 82.7511 32.9666 82.5254 32.7223C82.3027 32.478 81.9904 32.3559 81.5884 32.3559C81.3194 32.3559 81.0813 32.4131 80.8741 32.5275C80.67 32.6419 80.5092 32.8089 80.3917 33.0284C80.2773 33.2449 80.2186 33.5062 80.2155 33.8123Z" fill="white"/>
<path d="M86.3903 37.9312V30.8067H88.3662V37.9312H86.3903ZM87.3829 29.8883C87.0891 29.8883 86.8371 29.7909 86.6268 29.5961C86.4196 29.3982 86.3161 29.1616 86.3161 28.8864C86.3161 28.6143 86.4196 28.3808 86.6268 28.186C86.8371 27.9881 87.0891 27.8892 87.3829 27.8892C87.6766 27.8892 87.9271 27.9881 88.1343 28.186C88.3446 28.3808 88.4497 28.6143 88.4497 28.8864C88.4497 29.1616 88.3446 29.3982 88.1343 29.5961C87.9271 29.7909 87.6766 29.8883 87.3829 29.8883Z" fill="white"/>
<path d="M93.5716 34.6287H95.2785L96.1366 35.7326L96.9808 36.7159L98.5717 38.7104H96.6978L95.6032 37.3653L95.0419 36.5675L93.5716 34.6287ZM98.7155 33.1815C98.7155 34.2174 98.5191 35.0987 98.1264 35.8254C97.7368 36.552 97.2049 37.1071 96.5308 37.4905C95.8598 37.8709 95.1053 38.061 94.2673 38.061C93.4232 38.061 92.6656 37.8693 91.9945 37.4859C91.3235 37.1025 90.7932 36.5474 90.4036 35.8207C90.014 35.0941 89.8192 34.2143 89.8192 33.1815C89.8192 32.1456 90.014 31.2643 90.4036 30.5377C90.7932 29.811 91.3235 29.2575 91.9945 28.8771C92.6656 28.4937 93.4232 28.302 94.2673 28.302C95.1053 28.302 95.8598 28.4937 96.5308 28.8771C97.2049 29.2575 97.7368 29.811 98.1264 30.5377C98.5191 31.2643 98.7155 32.1456 98.7155 33.1815ZM96.6793 33.1815C96.6793 32.5105 96.5788 31.9446 96.3778 31.4839C96.1799 31.0231 95.9 30.6737 95.5382 30.4356C95.1764 30.1975 94.7528 30.0785 94.2673 30.0785C93.7819 30.0785 93.3582 30.1975 92.9964 30.4356C92.6346 30.6737 92.3532 31.0231 92.1522 31.4839C91.9543 31.9446 91.8554 32.5105 91.8554 33.1815C91.8554 33.8525 91.9543 34.4184 92.1522 34.8791C92.3532 35.3399 92.6346 35.6893 92.9964 35.9274C93.3582 36.1655 93.7819 36.2846 94.2673 36.2846C94.7528 36.2846 95.1764 36.1655 95.5382 35.9274C95.9 35.6893 96.1799 35.3399 96.3778 34.8791C96.5788 34.4184 96.6793 33.8525 96.6793 33.1815Z" fill="white"/>
<path d="M100.203 37.9312V28.4318H102.212V36.2753H106.284V37.9312H100.203Z" fill="white"/>
<defs>
<clipPath id="clip0_12_558">
<rect width="41.6337" height="41.6337" fill="white" transform="translate(0 0.379181)"/>
</clipPath>
</defs>
</svg>
