<svg width="193" height="59" viewBox="0 0 193 59" fill="none" xmlns="http://www.w3.org/2000/svg">
<g filter="url(#filter0_d_12_408)">
<path d="M6.49426 37.5309L8.32715 38.5891L28.7463 3.22322L26.9134 2.16497L6.49426 37.5309Z" fill="#D4319E"/>
<path d="M46.9128 34.7055H6.07452V36.822H46.9128V34.7055Z" fill="#D4319E"/>
<path d="M6.88261 35.8945L27.3094 47.6883L28.3676 45.8554L7.94086 34.0617L6.88261 35.8945Z" fill="#D4319E"/>
<path d="M24.6273 5.15696L45.0541 16.9507L46.1124 15.1178L25.6856 3.32408L24.6273 5.15696Z" fill="#D4319E"/>
<path d="M6.88822 15.1098L7.94647 16.9427L28.3732 5.14891L27.315 3.31602L6.88822 15.1098Z" fill="#D4319E"/>
<path d="M24.2584 3.22358L44.6775 38.5895L46.5104 37.5313L26.0913 2.16533L24.2584 3.22358Z" fill="#D4319E"/>
<path d="M9.81029 13.7062H7.69379V37.2937H9.81029V13.7062Z" fill="#D4319E"/>
<path d="M45.3063 13.7062H43.1898V37.2937H45.3063V13.7062Z" fill="#D4319E"/>
<path d="M26.0247 45.1914L26.949 46.7924L44.7148 36.535L43.7904 34.934L26.0247 45.1914Z" fill="#D4319E"/>
<path d="M48.1113 37.9822C46.8873 40.1115 44.1588 40.8382 42.0295 39.6142C39.9003 38.3902 39.1735 35.6617 40.3975 33.5325C41.6215 31.4032 44.35 30.6765 46.4793 31.9005C48.6213 33.1372 49.348 35.853 48.1113 37.9822Z" fill="#D4319E"/>
<path d="M12.5898 17.4675C11.3658 19.5968 8.63727 20.3235 6.50802 19.0995C4.37877 17.8755 3.65202 15.147 4.87602 13.0178C6.10002 10.8885 8.82852 10.1618 10.9578 11.3858C13.087 12.6225 13.8138 15.3383 12.5898 17.4675Z" fill="#D4319E"/>
<path d="M4.88878 37.9822C3.66478 35.853 4.39153 33.1372 6.52078 31.9005C8.65003 30.6765 11.3658 31.4032 12.6025 33.5325C13.8265 35.6617 13.0998 38.3775 10.9705 39.6142C8.82853 40.8382 6.11278 40.1115 4.88878 37.9822Z" fill="#D4319E"/>
<path d="M40.4103 17.4675C39.1863 15.3383 39.913 12.6225 42.0423 11.3858C44.1715 10.1618 46.8873 10.8885 48.124 13.0178C49.348 15.147 48.6213 17.8628 46.492 19.0995C44.3628 20.3235 41.6343 19.5968 40.4103 17.4675Z" fill="#D4319E"/>
<path d="M26.5 50.4645C24.0393 50.4645 22.0503 48.4755 22.0503 46.0148C22.0503 43.554 24.0393 41.565 26.5 41.565C28.9608 41.565 30.9498 43.554 30.9498 46.0148C30.9498 48.4628 28.9608 50.4645 26.5 50.4645Z" fill="#D4319E"/>
<path d="M26.5 9.43499C24.0393 9.43499 22.0503 7.44599 22.0503 4.98524C22.0503 2.52449 24.0393 0.535492 26.5 0.535492C28.9608 0.535492 30.9498 2.52449 30.9498 4.98524C30.9498 7.44599 28.9608 9.43499 26.5 9.43499Z" fill="#D4319E"/>
</g>
<path d="M7.49426 38.5309L9.32715 39.5891L29.7463 4.22322L27.9134 3.16497L7.49426 38.5309Z" fill="white"/>
<path d="M47.9128 35.7055H7.07452V37.822H47.9128V35.7055Z" fill="white"/>
<path d="M7.88261 36.8945L28.3094 48.6883L29.3676 46.8554L8.94086 35.0617L7.88261 36.8945Z" fill="white"/>
<path d="M25.6273 6.15696L46.0541 17.9507L47.1124 16.1178L26.6856 4.32408L25.6273 6.15696Z" fill="white"/>
<path d="M7.88822 16.1098L8.94647 17.9427L29.3732 6.14891L28.315 4.31602L7.88822 16.1098Z" fill="white"/>
<path d="M25.2584 4.22358L45.6775 39.5895L47.5104 38.5313L27.0913 3.16533L25.2584 4.22358Z" fill="white"/>
<path d="M10.8103 14.7062H8.69379V38.2937H10.8103V14.7062Z" fill="white"/>
<path d="M46.3063 14.7062H44.1898V38.2937H46.3063V14.7062Z" fill="white"/>
<path d="M27.0247 46.1914L27.949 47.7924L45.7148 37.535L44.7904 35.934L27.0247 46.1914Z" fill="white"/>
<path d="M49.1113 38.9822C47.8873 41.1115 45.1588 41.8382 43.0295 40.6142C40.9003 39.3902 40.1735 36.6617 41.3975 34.5325C42.6215 32.4032 45.35 31.6765 47.4793 32.9005C49.6213 34.1372 50.348 36.853 49.1113 38.9822Z" fill="white"/>
<path d="M13.5898 18.4675C12.3658 20.5968 9.63727 21.3235 7.50802 20.0995C5.37877 18.8755 4.65202 16.147 5.87602 14.0178C7.10002 11.8885 9.82852 11.1618 11.9578 12.3858C14.087 13.6225 14.8138 16.3383 13.5898 18.4675Z" fill="white"/>
<path d="M5.88878 38.9822C4.66478 36.853 5.39153 34.1372 7.52078 32.9005C9.65003 31.6765 12.3658 32.4032 13.6025 34.5325C14.8265 36.6617 14.0998 39.3775 11.9705 40.6142C9.82853 41.8382 7.11278 41.1115 5.88878 38.9822Z" fill="white"/>
<path d="M41.4103 18.4675C40.1863 16.3383 40.913 13.6225 43.0423 12.3858C45.1715 11.1618 47.8873 11.8885 49.124 14.0178C50.348 16.147 49.6213 18.8628 47.492 20.0995C45.3628 21.3235 42.6343 20.5968 41.4103 18.4675Z" fill="white"/>
<path d="M27.5 51.4645C25.0393 51.4645 23.0503 49.4755 23.0503 47.0148C23.0503 44.554 25.0393 42.565 27.5 42.565C29.9608 42.565 31.9498 44.554 31.9498 47.0148C31.9498 49.4628 29.9608 51.4645 27.5 51.4645Z" fill="white"/>
<path d="M27.5 10.435C25.0393 10.435 23.0503 8.44599 23.0503 5.98524C23.0503 3.52449 25.0393 1.53549 27.5 1.53549C29.9608 1.53549 31.9498 3.52449 31.9498 5.98524C31.9498 8.44599 29.9608 10.435 27.5 10.435Z" fill="white"/>
<path d="M60.517 23V5.54545H67.4034C68.7273 5.54545 69.8551 5.7983 70.7869 6.30398C71.7188 6.80398 72.429 7.5 72.9176 8.39204C73.4119 9.27841 73.6591 10.3011 73.6591 11.4602C73.6591 12.6193 73.4091 13.642 72.9091 14.5284C72.4091 15.4148 71.6847 16.1051 70.7358 16.5994C69.7926 17.0937 68.6506 17.3409 67.3097 17.3409H62.9205V14.3835H66.7131C67.4233 14.3835 68.0085 14.2614 68.4688 14.017C68.9347 13.767 69.2813 13.4233 69.5085 12.9858C69.7415 12.5426 69.858 12.0341 69.858 11.4602C69.858 10.8807 69.7415 10.375 69.5085 9.94318C69.2813 9.50568 68.9347 9.16761 68.4688 8.92898C68.0028 8.68466 67.4119 8.5625 66.696 8.5625H64.2074V23H60.517ZM79.6186 5.54545V23H75.9879V5.54545H79.6186ZM86.2599 23.2472C85.4247 23.2472 84.6804 23.1023 84.027 22.8125C83.3736 22.517 82.8565 22.0824 82.4759 21.5085C82.1009 20.929 81.9134 20.2074 81.9134 19.3438C81.9134 18.6165 82.0469 18.0057 82.3139 17.5114C82.581 17.017 82.9446 16.6193 83.4048 16.3182C83.8651 16.017 84.3878 15.7898 84.973 15.6364C85.5639 15.483 86.1832 15.375 86.831 15.3125C87.5923 15.233 88.206 15.1591 88.6719 15.0909C89.1378 15.017 89.4759 14.9091 89.6861 14.767C89.8963 14.625 90.0014 14.4148 90.0014 14.1364V14.0852C90.0014 13.5455 89.831 13.1278 89.4901 12.8324C89.1548 12.5369 88.6776 12.3892 88.0582 12.3892C87.4048 12.3892 86.8849 12.5341 86.4986 12.8239C86.1122 13.108 85.8565 13.4659 85.7315 13.8977L82.3736 13.625C82.544 12.8295 82.8793 12.142 83.3793 11.5625C83.8793 10.9773 84.5241 10.5284 85.3139 10.2159C86.1094 9.89773 87.0298 9.73864 88.0753 9.73864C88.8026 9.73864 89.4986 9.82386 90.1634 9.99432C90.8338 10.1648 91.4276 10.429 91.9446 10.7869C92.4673 11.1449 92.8793 11.6051 93.1804 12.1676C93.4815 12.7244 93.6321 13.392 93.6321 14.1705V23H90.1889V21.1847H90.0866C89.8764 21.5938 89.5952 21.9545 89.2429 22.267C88.8906 22.5739 88.4673 22.8153 87.973 22.9915C87.4787 23.1619 86.9077 23.2472 86.2599 23.2472ZM87.2997 20.7415C87.8338 20.7415 88.3054 20.6364 88.7145 20.4261C89.1236 20.2102 89.4446 19.9205 89.6776 19.5568C89.9105 19.1932 90.027 18.7812 90.027 18.321V16.9318C89.9134 17.0057 89.7571 17.0739 89.5582 17.1364C89.3651 17.1932 89.1463 17.2472 88.902 17.2983C88.6577 17.3437 88.4134 17.3864 88.169 17.4261C87.9247 17.4602 87.7031 17.4915 87.5043 17.5199C87.0781 17.5824 86.706 17.6818 86.3878 17.8182C86.0696 17.9545 85.8224 18.1392 85.6463 18.3722C85.4702 18.5994 85.3821 18.8835 85.3821 19.2244C85.3821 19.7188 85.5611 20.0966 85.919 20.358C86.2827 20.6136 86.7429 20.7415 87.2997 20.7415ZM98.2216 27.9091C97.7614 27.9091 97.3295 27.8722 96.9261 27.7983C96.5284 27.7301 96.1989 27.642 95.9375 27.5341L96.7557 24.8239C97.1818 24.9545 97.5653 25.0256 97.9062 25.0369C98.2528 25.0483 98.5511 24.9688 98.8011 24.7983C99.0568 24.6278 99.2642 24.3381 99.4233 23.929L99.6364 23.375L94.9403 9.90909H98.7585L101.469 19.5227H101.605L104.341 9.90909H108.185L103.097 24.4148C102.852 25.1193 102.52 25.733 102.099 26.2557C101.685 26.7841 101.159 27.1903 100.523 27.4744C99.8864 27.7642 99.1193 27.9091 98.2216 27.9091ZM115.518 28.1818C114.342 28.1818 113.334 28.0199 112.493 27.696C111.658 27.3778 110.993 26.9432 110.499 26.392C110.004 25.8409 109.683 25.2216 109.536 24.5341L112.893 24.0824C112.996 24.3438 113.158 24.5881 113.379 24.8153C113.601 25.0426 113.893 25.2244 114.257 25.3608C114.626 25.5028 115.075 25.5739 115.604 25.5739C116.393 25.5739 117.044 25.3807 117.555 24.9943C118.072 24.6136 118.331 23.9744 118.331 23.0767V20.6818H118.178C118.018 21.0455 117.78 21.3892 117.462 21.7131C117.143 22.0369 116.734 22.3011 116.234 22.5057C115.734 22.7102 115.138 22.8125 114.445 22.8125C113.462 22.8125 112.567 22.5852 111.76 22.1307C110.959 21.6705 110.32 20.9687 109.842 20.0256C109.371 19.0767 109.135 17.8778 109.135 16.429C109.135 14.946 109.376 13.7074 109.859 12.7131C110.342 11.7187 110.984 10.9744 111.786 10.4801C112.592 9.9858 113.476 9.73864 114.436 9.73864C115.169 9.73864 115.783 9.86364 116.277 10.1136C116.771 10.358 117.169 10.6648 117.47 11.0341C117.777 11.3977 118.013 11.7557 118.178 12.108H118.314V9.90909H121.919V23.1278C121.919 24.2415 121.646 25.1733 121.101 25.9233C120.555 26.6733 119.8 27.2358 118.834 27.6108C117.874 27.9915 116.768 28.1818 115.518 28.1818ZM115.595 20.0852C116.18 20.0852 116.675 19.9403 117.078 19.6506C117.487 19.3551 117.8 18.9347 118.016 18.3892C118.237 17.8381 118.348 17.179 118.348 16.4119C118.348 15.6449 118.24 14.9801 118.024 14.4176C117.808 13.8494 117.496 13.4091 117.087 13.0966C116.678 12.7841 116.18 12.6278 115.595 12.6278C114.999 12.6278 114.496 12.7898 114.087 13.1136C113.678 13.4318 113.368 13.875 113.158 14.4432C112.947 15.0114 112.842 15.6676 112.842 16.4119C112.842 17.1676 112.947 17.821 113.158 18.3722C113.374 18.9176 113.683 19.3409 114.087 19.642C114.496 19.9375 114.999 20.0852 115.595 20.0852ZM124.808 23V9.90909H128.328V12.1932H128.464C128.703 11.3807 129.104 10.767 129.666 10.3523C130.229 9.93182 130.876 9.72159 131.609 9.72159C131.791 9.72159 131.987 9.73295 132.197 9.75568C132.408 9.77841 132.592 9.80966 132.751 9.84943V13.071C132.581 13.0199 132.345 12.9744 132.044 12.9347C131.743 12.8949 131.467 12.875 131.217 12.875C130.683 12.875 130.206 12.9915 129.786 13.2244C129.371 13.4517 129.041 13.7699 128.797 14.179C128.558 14.5881 128.439 15.0597 128.439 15.5938V23H124.808ZM139.934 23.2557C138.61 23.2557 137.465 22.9744 136.499 22.4119C135.539 21.8437 134.798 21.054 134.275 20.0426C133.752 19.0256 133.491 17.8466 133.491 16.5057C133.491 15.1534 133.752 13.9716 134.275 12.9602C134.798 11.9432 135.539 11.1534 136.499 10.5909C137.465 10.0227 138.61 9.73864 139.934 9.73864C141.258 9.73864 142.4 10.0227 143.36 10.5909C144.326 11.1534 145.07 11.9432 145.593 12.9602C146.116 13.9716 146.377 15.1534 146.377 16.5057C146.377 17.8466 146.116 19.0256 145.593 20.0426C145.07 21.054 144.326 21.8437 143.36 22.4119C142.4 22.9744 141.258 23.2557 139.934 23.2557ZM139.951 20.4432C140.553 20.4432 141.056 20.2727 141.46 19.9318C141.863 19.5852 142.167 19.1136 142.371 18.517C142.582 17.9205 142.687 17.2415 142.687 16.4801C142.687 15.7188 142.582 15.0398 142.371 14.4432C142.167 13.8466 141.863 13.375 141.46 13.0284C141.056 12.6818 140.553 12.5085 139.951 12.5085C139.343 12.5085 138.832 12.6818 138.417 13.0284C138.008 13.375 137.698 13.8466 137.488 14.4432C137.283 15.0398 137.181 15.7188 137.181 16.4801C137.181 17.2415 137.283 17.9205 137.488 18.517C137.698 19.1136 138.008 19.5852 138.417 19.9318C138.832 20.2727 139.343 20.4432 139.951 20.4432ZM157.133 17.4261V9.90909H160.763V23H157.278V20.6222H157.141C156.846 21.3892 156.354 22.0057 155.667 22.4716C154.985 22.9375 154.153 23.1705 153.17 23.1705C152.295 23.1705 151.525 22.9716 150.86 22.5739C150.195 22.1761 149.675 21.6108 149.3 20.8778C148.931 20.1449 148.744 19.267 148.738 18.2443V9.90909H152.369V17.5966C152.374 18.3693 152.582 18.9801 152.991 19.429C153.4 19.8778 153.948 20.1023 154.636 20.1023C155.073 20.1023 155.482 20.0028 155.863 19.804C156.244 19.5994 156.55 19.2983 156.783 18.9006C157.022 18.5028 157.138 18.0114 157.133 17.4261ZM167.298 15.4318V23H163.668V9.90909H167.128V12.2188H167.281C167.571 11.4574 168.057 10.8551 168.739 10.4119C169.42 9.96307 170.247 9.73864 171.219 9.73864C172.128 9.73864 172.92 9.9375 173.597 10.3352C174.273 10.733 174.798 11.3011 175.173 12.0398C175.548 12.7727 175.736 13.6477 175.736 14.6648V23H172.105V15.3125C172.111 14.5114 171.906 13.8864 171.491 13.4375C171.077 12.983 170.506 12.7557 169.778 12.7557C169.29 12.7557 168.858 12.8608 168.483 13.071C168.114 13.2812 167.824 13.5881 167.614 13.9915C167.409 14.3892 167.304 14.8693 167.298 15.4318ZM183.421 23.2131C182.427 23.2131 181.526 22.9574 180.719 22.446C179.918 21.929 179.282 21.1705 178.81 20.1705C178.344 19.1648 178.112 17.9318 178.112 16.4716C178.112 14.9716 178.353 13.7244 178.836 12.7301C179.319 11.7301 179.961 10.983 180.762 10.4886C181.569 9.98864 182.452 9.73864 183.413 9.73864C184.146 9.73864 184.756 9.86364 185.245 10.1136C185.739 10.358 186.137 10.6648 186.438 11.0341C186.745 11.3977 186.978 11.7557 187.137 12.108H187.248V5.54545H190.87V23H187.29V20.9034H187.137C186.967 21.267 186.725 21.6278 186.413 21.9858C186.106 22.3381 185.705 22.6307 185.211 22.8636C184.722 23.0966 184.126 23.2131 183.421 23.2131ZM184.572 20.3239C185.157 20.3239 185.651 20.1648 186.055 19.8466C186.464 19.5227 186.776 19.071 186.992 18.4915C187.214 17.9119 187.325 17.233 187.325 16.4545C187.325 15.6761 187.217 15 187.001 14.4261C186.785 13.8523 186.472 13.4091 186.063 13.0966C185.654 12.7841 185.157 12.6278 184.572 12.6278C183.975 12.6278 183.472 12.7898 183.063 13.1136C182.654 13.4375 182.344 13.8864 182.134 14.4602C181.924 15.0341 181.819 15.6989 181.819 16.4545C181.819 17.2159 181.924 17.8892 182.134 18.4744C182.35 19.054 182.66 19.5085 183.063 19.8381C183.472 20.1619 183.975 20.3239 184.572 20.3239Z" fill="white"/>
<path d="M67.7273 39.125C67.6477 38.8485 67.536 38.6042 67.392 38.392C67.2481 38.1761 67.072 37.9943 66.8636 37.8466C66.6591 37.6951 66.4242 37.5795 66.1591 37.5C65.8977 37.4205 65.608 37.3807 65.2898 37.3807C64.6951 37.3807 64.1723 37.5284 63.7216 37.8239C63.2746 38.1193 62.9261 38.5492 62.6761 39.1136C62.4261 39.6742 62.3011 40.3598 62.3011 41.1705C62.3011 41.9811 62.4242 42.6705 62.6705 43.2386C62.9167 43.8068 63.2652 44.2405 63.7159 44.5398C64.1667 44.8352 64.6989 44.983 65.3125 44.983C65.8693 44.983 66.3447 44.8845 66.7386 44.6875C67.1364 44.4867 67.4394 44.2045 67.6477 43.8409C67.8598 43.4773 67.9659 43.0473 67.9659 42.5511L68.4659 42.625H65.4659V40.7727H70.3352V42.2386C70.3352 43.2614 70.1193 44.1402 69.6875 44.875C69.2557 45.6061 68.661 46.1705 67.9034 46.5682C67.1458 46.9621 66.2784 47.1591 65.3011 47.1591C64.2102 47.1591 63.2519 46.9186 62.4261 46.4375C61.6004 45.9527 60.9564 45.2652 60.4943 44.375C60.036 43.4811 59.8068 42.4205 59.8068 41.1932C59.8068 40.25 59.9432 39.4091 60.2159 38.6705C60.4924 37.928 60.8788 37.2992 61.375 36.7841C61.8712 36.2689 62.4489 35.8769 63.108 35.608C63.767 35.339 64.4811 35.2045 65.25 35.2045C65.9091 35.2045 66.5227 35.3011 67.0909 35.4943C67.6591 35.6837 68.1629 35.9527 68.6023 36.3011C69.0455 36.6496 69.4072 37.0644 69.6875 37.5455C69.9678 38.0227 70.1477 38.5492 70.2273 39.125H67.7273ZM72.1378 47V38.2727H74.4844V39.7955H74.5753C74.7344 39.2538 75.0014 38.8447 75.3764 38.5682C75.7514 38.2879 76.1832 38.1477 76.6719 38.1477C76.7931 38.1477 76.9238 38.1553 77.0639 38.1705C77.2041 38.1856 77.3272 38.2064 77.4332 38.233V40.3807C77.3196 40.3466 77.1624 40.3163 76.9616 40.2898C76.7609 40.2633 76.5772 40.25 76.4105 40.25C76.0545 40.25 75.7363 40.3277 75.456 40.483C75.1795 40.6345 74.9598 40.8466 74.7969 41.1193C74.6378 41.392 74.5582 41.7064 74.5582 42.0625V47H72.1378ZM80.9233 47.1648C80.3665 47.1648 79.8703 47.0682 79.4347 46.875C78.9991 46.678 78.6544 46.3883 78.4006 46.0057C78.1506 45.6193 78.0256 45.1383 78.0256 44.5625C78.0256 44.0777 78.1146 43.6705 78.2926 43.3409C78.4706 43.0114 78.7131 42.7462 79.0199 42.5455C79.3267 42.3447 79.6752 42.1932 80.0653 42.0909C80.4593 41.9886 80.8722 41.9167 81.304 41.875C81.8116 41.822 82.2206 41.7727 82.5312 41.7273C82.8419 41.678 83.0672 41.6061 83.2074 41.5114C83.3475 41.4167 83.4176 41.2765 83.4176 41.0909V41.0568C83.4176 40.697 83.304 40.4186 83.0767 40.2216C82.8532 40.0246 82.535 39.9261 82.1222 39.9261C81.6866 39.9261 81.34 40.0227 81.0824 40.2159C80.8248 40.4053 80.6544 40.6439 80.571 40.9318L78.3324 40.75C78.446 40.2197 78.6695 39.7614 79.0028 39.375C79.3362 38.9848 79.7661 38.6856 80.2926 38.4773C80.8229 38.2652 81.4366 38.1591 82.1335 38.1591C82.6184 38.1591 83.0824 38.2159 83.5256 38.3295C83.9725 38.4432 84.3684 38.6193 84.7131 38.858C85.0616 39.0966 85.3362 39.4034 85.5369 39.7784C85.7377 40.1496 85.8381 40.5947 85.8381 41.1136V47H83.5426V45.7898H83.4744C83.3343 46.0625 83.1468 46.303 82.9119 46.5114C82.6771 46.7159 82.3949 46.8769 82.0653 46.9943C81.7358 47.108 81.3551 47.1648 80.9233 47.1648ZM81.6165 45.4943C81.9725 45.4943 82.2869 45.4242 82.5597 45.2841C82.8324 45.1402 83.0464 44.947 83.2017 44.7045C83.357 44.4621 83.4347 44.1875 83.4347 43.8807V42.9545C83.3589 43.0038 83.2547 43.0492 83.1222 43.0909C82.9934 43.1288 82.8475 43.1648 82.6847 43.1989C82.5218 43.2292 82.3589 43.2576 82.196 43.2841C82.0331 43.3068 81.8854 43.3277 81.7528 43.3466C81.4688 43.3883 81.2206 43.4545 81.0085 43.5455C80.7964 43.6364 80.6316 43.7595 80.5142 43.9148C80.3968 44.0663 80.3381 44.2557 80.3381 44.483C80.3381 44.8125 80.4574 45.0644 80.696 45.2386C80.9384 45.4091 81.2453 45.4943 81.6165 45.4943ZM87.7159 50.2727V38.2727H90.1023V39.7386H90.2102C90.3163 39.5038 90.4697 39.2652 90.6705 39.0227C90.875 38.7765 91.1402 38.572 91.4659 38.4091C91.7955 38.2424 92.2045 38.1591 92.6932 38.1591C93.3295 38.1591 93.9167 38.3258 94.4545 38.6591C94.9924 38.9886 95.4223 39.4867 95.7443 40.1534C96.0663 40.8163 96.2273 41.6477 96.2273 42.6477C96.2273 43.6212 96.0701 44.4432 95.7557 45.1136C95.4451 45.7803 95.0208 46.286 94.483 46.6307C93.9489 46.9716 93.3504 47.142 92.6875 47.142C92.2178 47.142 91.8182 47.0644 91.4886 46.9091C91.1629 46.7538 90.8958 46.5587 90.6875 46.3239C90.4792 46.0852 90.3201 45.8447 90.2102 45.6023H90.1364V50.2727H87.7159ZM90.0852 42.6364C90.0852 43.1553 90.1572 43.608 90.3011 43.9943C90.4451 44.3807 90.6534 44.6818 90.9261 44.8977C91.1989 45.1098 91.5303 45.2159 91.9205 45.2159C92.3144 45.2159 92.6477 45.108 92.9205 44.892C93.1932 44.6723 93.3996 44.3693 93.5398 43.983C93.6837 43.5928 93.7557 43.1439 93.7557 42.6364C93.7557 42.1326 93.6856 41.6894 93.5455 41.3068C93.4053 40.9242 93.1989 40.625 92.9261 40.4091C92.6534 40.1932 92.3182 40.0852 91.9205 40.0852C91.5265 40.0852 91.1932 40.1894 90.9205 40.3977C90.6515 40.6061 90.4451 40.9015 90.3011 41.2841C90.1572 41.6667 90.0852 42.1174 90.0852 42.6364ZM100.261 41.9545V47H97.8409V35.3636H100.193V39.8125H100.295C100.492 39.2973 100.811 38.8939 101.25 38.6023C101.689 38.3068 102.241 38.1591 102.903 38.1591C103.509 38.1591 104.038 38.2917 104.489 38.5568C104.943 38.8182 105.295 39.1951 105.545 39.6875C105.799 40.1761 105.924 40.7614 105.92 41.4432V47H103.5V41.875C103.504 41.3371 103.367 40.9186 103.091 40.6193C102.818 40.3201 102.436 40.1705 101.943 40.1705C101.614 40.1705 101.322 40.2405 101.068 40.3807C100.818 40.5208 100.621 40.7254 100.477 40.9943C100.337 41.2595 100.265 41.5795 100.261 41.9545ZM107.825 47V38.2727H110.246V47H107.825ZM109.041 37.1477C108.681 37.1477 108.373 37.0284 108.115 36.7898C107.861 36.5473 107.734 36.2576 107.734 35.9205C107.734 35.5871 107.861 35.3011 108.115 35.0625C108.373 34.8201 108.681 34.6989 109.041 34.6989C109.401 34.6989 109.708 34.8201 109.962 35.0625C110.219 35.3011 110.348 35.5871 110.348 35.9205C110.348 36.2576 110.219 36.5473 109.962 36.7898C109.708 37.0284 109.401 37.1477 109.041 37.1477ZM116.622 42.9545H118.713L119.764 44.3068L120.798 45.5114L122.747 47.9545H120.452L119.111 46.3068L118.423 45.3295L116.622 42.9545ZM122.923 41.1818C122.923 42.4508 122.683 43.5303 122.202 44.4205C121.724 45.3106 121.073 45.9905 120.247 46.4602C119.425 46.9261 118.501 47.1591 117.474 47.1591C116.44 47.1591 115.512 46.9242 114.69 46.4545C113.868 45.9848 113.219 45.3049 112.741 44.4148C112.264 43.5246 112.026 42.447 112.026 41.1818C112.026 39.9129 112.264 38.8333 112.741 37.9432C113.219 37.053 113.868 36.375 114.69 35.9091C115.512 35.4394 116.44 35.2045 117.474 35.2045C118.501 35.2045 119.425 35.4394 120.247 35.9091C121.073 36.375 121.724 37.053 122.202 37.9432C122.683 38.8333 122.923 39.9129 122.923 41.1818ZM120.429 41.1818C120.429 40.3598 120.306 39.6667 120.06 39.1023C119.817 38.5379 119.474 38.1098 119.031 37.8182C118.588 37.5265 118.069 37.3807 117.474 37.3807C116.88 37.3807 116.361 37.5265 115.918 37.8182C115.474 38.1098 115.13 38.5379 114.884 39.1023C114.641 39.6667 114.52 40.3598 114.52 41.1818C114.52 42.0038 114.641 42.697 114.884 43.2614C115.13 43.8258 115.474 44.2538 115.918 44.5455C116.361 44.8371 116.88 44.983 117.474 44.983C118.069 44.983 118.588 44.8371 119.031 44.5455C119.474 44.2538 119.817 43.8258 120.06 43.2614C120.306 42.697 120.429 42.0038 120.429 41.1818ZM124.746 47V35.3636H127.206V44.9716H132.195V47H124.746Z" fill="white"/>
<defs>
<filter id="filter0_d_12_408" x="-3" y="0" width="59" height="59" filterUnits="userSpaceOnUse" color-interpolation-filters="sRGB">
<feFlood flood-opacity="0" result="BackgroundImageFix"/>
<feColorMatrix in="SourceAlpha" type="matrix" values="0 0 0 0 0 0 0 0 0 0 0 0 0 0 0 0 0 0 127 0" result="hardAlpha"/>
<feOffset dy="4"/>
<feGaussianBlur stdDeviation="2"/>
<feComposite in2="hardAlpha" operator="out"/>
<feColorMatrix type="matrix" values="0 0 0 0 0 0 0 0 0 0 0 0 0 0 0 0 0 0 0.3 0"/>
<feBlend mode="normal" in2="BackgroundImageFix" result="effect1_dropShadow_12_408"/>
<feBlend mode="normal" in="SourceGraphic" in2="effect1_dropShadow_12_408" result="shape"/>
</filter>
</defs>
</svg>
